HIERARCHY
ROOT Hips
{
	OFFSET 0.000000 0.000000 0.000000
	CHANNELS 6 Xposition Yposition Zposition Xrotation Yrotation Zrotation
	JOINT LeftUpLeg_virtual
	{
		OFFSET 0.000000 0.000000 0.000000
		CHANNELS 3 Xrotation Yrotation Zrotation
		JOINT LeftUpLeg
		{
			OFFSET 13.026900 -6.336304 -1.092800
			CHANNELS 3 Xrotation Yrotation Zrotation
			JOINT LeftLeg
			{
				OFFSET 0.524474 -46.096886 9.782700
				CHANNELS 3 Xrotation Yrotation Zrotation
				JOINT LeftFoot
				{
					OFFSET -0.524474 -53.427422 -12.948200
					CHANNELS 3 Xrotation Yrotation Zrotation
					JOINT LeftToeBase
					{
						OFFSET 0.192200 -14.009700 16.364100
						CHANNELS 3 Xrotation Yrotation Zrotation
						JOINT LeftToe_End
						{
							OFFSET -1.784700 -0.561700 9.474800
							CHANNELS 3 Xrotation Yrotation Zrotation
							End Site
							{
								OFFSET 0 0 0
							}
						}
					}
				}
			}
		}
	}
	JOINT RightUpLeg_virtual
	{
		OFFSET 0.000000 0.000000 0.000000
		CHANNELS 3 Xrotation Yrotation Zrotation
		JOINT RightUpLeg
		{
			OFFSET -12.883000 -6.336304 -1.092800
			CHANNELS 3 Xrotation Yrotation Zrotation
			JOINT RightLeg
			{
				OFFSET -0.524587 -46.096825 9.782800
				CHANNELS 3 Xrotation Yrotation Zrotation
				JOINT RightFoot
				{
					OFFSET 0.524587 -53.427383 -12.948300
					CHANNELS 3 Xrotation Yrotation Zrotation
					JOINT RightToeBase
					{
						OFFSET -0.192200 -14.009700 16.364100
						CHANNELS 3 Xrotation Yrotation Zrotation
						JOINT RightToe_End
						{
							OFFSET 1.784700 -0.561700 9.474800
							CHANNELS 3 Xrotation Yrotation Zrotation
							End Site
							{
								OFFSET 0 0 0
							}
						}
					}
				}
			}
		}
	}
	JOINT Spine_virtual
	{
		OFFSET 0.000000 0.000000 0.000000
		CHANNELS 3 Xrotation Yrotation Zrotation
		JOINT Spine
		{
			OFFSET 0.072000 7.257294 -0.789700
			CHANNELS 3 Xrotation Yrotation Zrotation
			JOINT Spine1
			{
				OFFSET 0.000000 12.508769 -0.658067
				CHANNELS 3 Xrotation Yrotation Zrotation
				JOINT Spine1_split
				{
					OFFSET 0.000000 12.508769 -0.658067
					CHANNELS 3 Xrotation Yrotation Zrotation
					JOINT Spine2
					{
						OFFSET 0.000000 12.508769 -0.658067
						CHANNELS 3 Xrotation Yrotation Zrotation
						JOINT Neck_virtual
						{
							OFFSET 0.000000 0.000000 0.000000
							CHANNELS 3 Xrotation Yrotation Zrotation
							JOINT Neck
							{
								OFFSET 0.000000 14.033295 7.520400
								CHANNELS 3 Xrotation Yrotation Zrotation
								JOINT Head
								{
									OFFSET 0.000000 8.198502 5.703100
									CHANNELS 3 Xrotation Yrotation Zrotation
									JOINT HeadTop_End
									{
										OFFSET 0.000000 17.760803 13.332701
										CHANNELS 3 Xrotation Yrotation Zrotation
										End Site
										{
											OFFSET 0 0 0
										}
									}
								}
							}
						}
						JOINT LeftShoulder_virtual
						{
							OFFSET 0.000000 0.000000 0.000000
							CHANNELS 3 Xrotation Yrotation Zrotation
							JOINT LeftShoulder
							{
								OFFSET 6.292450 5.785301 -0.669000
								CHANNELS 3 Xrotation Yrotation Zrotation
								JOINT LeftShoulder_split
								{
									OFFSET 6.292450 5.785301 -0.669000
									CHANNELS 3 Xrotation Yrotation Zrotation
									JOINT LeftArm
									{
										OFFSET 13.907140 -6.093903 1.965100
										CHANNELS 3 Xrotation Yrotation Zrotation
										JOINT LeftForeArm
										{
											OFFSET 34.140198 0.000000 0.000000
											CHANNELS 3 Xrotation Yrotation Zrotation
											JOINT LeftHand
											{
												OFFSET 40.960209 0.000000 0.000000
												CHANNELS 3 Xrotation Yrotation Zrotation
												End Site
												{
													OFFSET 0 0 0
												}
											}
										}
									}
								}
							}
						}
						JOINT RightShoulder_virtual
						{
							OFFSET 0.000000 0.000000 0.000000
							CHANNELS 3 Xrotation Yrotation Zrotation
							JOINT RightShoulder
							{
								OFFSET -6.292450 5.785301 -0.669000
								CHANNELS 3 Xrotation Yrotation Zrotation
								JOINT RightShoulder_split
								{
									OFFSET -6.292450 5.785301 -0.669000
									CHANNELS 3 Xrotation Yrotation Zrotation
									JOINT RightArm
									{
										OFFSET -13.907140 -6.093903 1.965100
										CHANNELS 3 Xrotation Yrotation Zrotation
										JOINT RightForeArm
										{
											OFFSET -34.140198 0.000000 0.000000
											CHANNELS 3 Xrotation Yrotation Zrotation
											JOINT RightHand
											{
												OFFSET -40.960209 0.000000 0.000000
												CHANNELS 3 Xrotation Yrotation Zrotation
												End Site
												{
													OFFSET 0 0 0
												}
											}
										}
									}
								}
							}
						}
					}
				}
			}
		}
	}
}
MOTION
Frames: 9
Frame Time: 0.03333333
-0.120537 117.854179 0.752289 0.000000 0.000000 0.000000 -4.120138 -1.692573 0.602669 -4.906105 8.067267 5.907639 14.383702 9.386087 1.353584 -4.146470 4.953237 -7.425230 1.066092 -0.000012 0.000000 0.000000 0.000000 0.000000 -4.120138 -1.692573 0.602669 -3.057702 -9.135142 -7.909309 15.435003 -9.269588 1.222238 -6.825653 -4.815866 5.879543 -1.455178 -0.000005 -0.000000 0.000000 0.000000 0.000000 -4.120138 -1.692573 0.602669 3.461849 1.714625 -2.460065 0.710881 0.526839 -0.263052 0.000000 0.000000 0.000000 0.000000 0.000000 0.000000 0.710198 0.523097 -0.267070 2.609734 -0.754816 0.156819 18.950505 -7.303244 0.624142 0.000000 0.000000 0.000000 0.710198 0.523097 -0.267070 2.730607 -4.471828 -12.384154 0.000000 0.000000 0.000000 -6.603776 -10.273122 -60.669176 0.000002 -16.775182 -0.000002 0.000000 0.000000 0.000000 0.710198 0.523097 -0.267070 1.996584 1.476375 14.937830 0.000000 0.000000 0.000000 -2.025624 7.814283 63.299967 -0.000001 12.108133 0.000020 0.000000 0.000000 0.000000 
-0.384748 117.560898 0.155865 0.000000 0.000000 0.000000 -4.504970 -0.982598 0.795170 -5.533287 7.931114 5.979933 15.458070 9.378301 1.352808 -4.641121 4.267473 -7.488653 1.061974 0.000004 0.000001 0.000000 0.000000 0.000000 -4.504970 -0.982598 0.795170 -3.480653 -8.891059 -7.795129 16.606659 -9.327447 0.943962 -7.173593 -5.696314 5.867014 -1.463798 -0.000007 -0.000001 0.000000 0.000000 0.000000 -4.504970 -0.982598 0.795170 3.857078 2.108044 -2.362006 0.779252 0.636650 -0.214313 0.000000 0.000000 0.000000 0.000000 0.000000 0.000000 0.779022 0.632011 -0.219523 2.504435 -0.875463 0.156874 18.776653 -8.477598 0.864275 0.000000 0.000000 0.000000 0.779022 0.632011 -0.219523 2.725928 -4.533559 -12.333780 0.000000 0.000000 0.000000 -6.245861 -8.768372 -60.756589 0.000001 -15.406544 0.000003 0.000000 0.000000 0.000000 0.779022 0.632011 -0.219523 1.997979 1.881702 14.910773 0.000000 0.000000 0.000000 -3.306486 8.365061 62.900749 0.000003 13.174782 -0.000016 0.000000 0.000000 0.000000 
-0.606441 117.360832 -0.381451 0.000000 0.000000 0.000000 -4.918340 -0.308440 0.931844 -5.935154 7.800622 6.039699 16.229860 9.374413 1.384318 -5.017652 3.595456 -7.527084 1.057853 0.000014 -0.000001 0.000000 0.000000 0.000000 -4.918340 -0.308440 0.931844 -3.648436 -8.841726 -7.739082 17.400826 -9.355656 0.849157 -7.376060 -6.377599 5.778279 -1.472420 -0.000004 0.000001 0.000000 0.000000 0.000000 -4.918340 -0.308440 0.931844 4.219877 2.454676 -2.202517 0.853396 0.731221 -0.162389 0.000000 0.000000 0.000000 0.000000 0.000000 0.000000 0.853783 0.725644 -0.168855 2.408680 -0.981841 0.156932 18.564656 -9.531853 1.114007 0.000000 0.000000 0.000000 0.853783 0.725644 -0.168855 2.733645 -4.642486 -12.331561 0.000000 0.000000 0.000000 -5.812746 -7.144128 -60.813641 0.000001 -13.796086 -0.000011 0.000000 0.000000 0.000000 0.853783 0.725644 -0.168855 2.006186 2.285587 14.907453 0.000000 0.000000 0.000000 -4.196579 9.036012 62.436549 0.000003 14.723542 -0.000016 0.000000 0.000000 0.000000 
-0.806388 117.217339 -0.853989 0.000000 0.000000 0.000000 -5.282855 0.481258 1.078526 -6.270807 7.679866 6.081198 16.808592 9.372178 1.397080 -5.327123 2.859870 -7.536759 1.053736 0.000003 -0.000001 0.000000 0.000000 0.000000 -5.282855 0.481258 1.078526 -3.699839 -8.862497 -7.695115 17.986123 -9.378018 0.799260 -7.542245 -7.115294 5.674850 -1.481036 0.000007 -0.000001 0.000000 0.000000 0.000000 -5.282855 0.481258 1.078526 4.463362 2.676383 -2.069900 0.923716 0.790729 -0.117401 0.000000 0.000000 0.000000 0.000000 0.000000 0.000000 0.924696 0.784238 -0.124910 2.332533 -1.065885 0.161657 18.398156 -10.383287 1.385002 0.000000 0.000000 0.000000 0.924696 0.784238 -0.124910 2.737249 -4.718404 -12.320234 0.000000 0.000000 0.000000 -5.287585 -5.423515 -60.921019 -0.000007 -12.198453 -0.000030 0.000000 0.000000 0.000000 0.924696 0.784238 -0.124910 2.023492 2.578337 14.945045 0.000000 0.000000 0.000000 -4.714584 9.925527 61.913131 0.000001 16.716321 0.000034 0.000000 0.000000 0.000000 
-0.995101 117.089706 -1.268944 0.000000 0.000000 0.000000 -5.650898 1.348586 1.260258 -6.550087 7.567686 6.098503 17.323837 9.370367 1.385422 -5.658579 2.035098 -7.531464 1.049621 0.000008 -0.000002 0.000000 0.000000 0.000000 -5.650898 1.348586 1.260258 -3.687392 -8.877448 -7.644092 18.558348 -9.408405 0.719104 -7.839100 -7.915366 5.600724 -1.489652 -0.000009 0.000000 0.000000 0.000000 0.000000 -5.650898 1.348586 1.260258 4.656980 2.852828 -2.027168 0.992002 0.839698 -0.075051 0.000000 0.000000 0.000000 0.000000 0.000000 0.000000 0.993615 0.832067 -0.083521 2.288248 -1.143353 0.176764 18.313808 -11.182961 1.643887 0.000000 0.000000 0.000000 0.993615 0.832067 -0.083521 2.742449 -4.872852 -12.285451 0.000000 0.000000 0.000000 -4.548079 -3.749252 -61.020022 0.000001 -10.805860 0.000010 0.000000 0.000000 0.000000 0.993615 0.832067 -0.083521 2.038431 2.739623 14.984684 0.000000 0.000000 0.000000 -5.032143 10.813844 61.476088 -0.000005 18.846131 0.000003 0.000000 0.000000 0.000000 
-1.162564 116.932953 -1.632637 0.000000 0.000000 0.000000 -6.046021 2.194859 1.394969 -6.858766 7.468855 6.175303 18.022672 9.374244 1.373850 -6.245411 1.213726 -7.552947 1.045506 0.000001 0.000000 0.000000 0.000000 0.000000 -6.046021 2.194859 1.394969 -3.641119 -8.872878 -7.537303 19.197886 -9.441470 0.631758 -8.274755 -8.682082 5.540429 -1.498271 -0.000009 0.000000 0.000000 0.000000 0.000000 -6.046021 2.194859 1.394969 4.834711 3.036325 -1.972484 1.052155 0.891348 -0.027667 0.000000 0.000000 0.000000 0.000000 0.000000 0.000000 1.054530 0.882473 -0.037071 2.273632 -1.219476 0.192162 18.312021 -11.982500 1.935004 0.000000 0.000000 0.000000 1.054530 0.882473 -0.037071 2.741631 -5.033696 -12.215048 0.000000 0.000000 0.000000 -3.657236 -2.104776 -61.186781 0.000002 -9.722048 -0.000012 0.000000 0.000000 0.000000 1.054530 0.882473 -0.037071 2.049373 2.848675 15.014231 0.000000 0.000000 0.000000 -5.285021 11.591772 61.149434 0.000008 20.793485 -0.000012 0.000000 0.000000 0.000000 
-1.299521 116.775871 -1.954987 0.000000 0.000000 0.000000 -6.414462 2.929140 1.507702 -7.159955 7.371858 6.226519 18.760778 8.980322 1.301759 -6.949018 0.976957 -7.460249 1.041389 -0.000004 -0.000000 0.000000 0.000000 0.000000 -6.414462 2.929140 1.507702 -3.606282 -8.865177 -7.431787 19.784357 -9.474330 0.544813 -8.628855 -9.346054 5.500343 -1.506891 -0.000001 -0.000002 0.000000 0.000000 0.000000 -6.414462 2.929140 1.507702 4.964290 3.232423 -1.903495 1.094368 0.945980 0.004707 0.000000 0.000000 0.000000 0.000000 0.000000 0.000000 1.097402 0.936193 -0.005604 2.273663 -1.291404 0.213039 18.362880 -12.691391 2.256232 0.000000 0.000000 0.000000 1.097402 0.936193 -0.005604 2.723397 -5.075622 -12.095944 0.000000 0.000000 0.000000 -2.634069 -0.570682 -61.406201 0.000001 -8.971687 -0.000012 0.000000 0.000000 0.000000 1.097402 0.936193 -0.005604 2.069436 2.984865 15.073743 0.000000 0.000000 0.000000 -5.465368 12.382749 60.828210 0.000004 22.487332 -0.000018 0.000000 0.000000 0.000000 
-1.413565 116.650162 -2.249275 0.000000 0.000000 0.000000 -6.671339 3.532087 1.598557 -7.471165 7.279826 6.263470 19.415100 8.502426 1.221938 -7.682715 1.004006 -7.335174 1.037270 0.000015 -0.000002 0.000000 0.000000 0.000000 -6.671339 3.532087 1.598557 -3.632708 -8.876432 -7.358579 20.219066 -9.494157 0.494785 -8.800478 -9.884598 5.462296 -1.515514 0.000013 0.000002 0.000000 0.000000 0.000000 -6.671339 3.532087 1.598557 4.994124 3.456434 -1.846799 1.112926 1.009146 0.028999 0.000000 0.000000 0.000000 0.000000 0.000000 0.000000 1.116627 0.998658 0.017857 2.267646 -1.356115 0.234406 18.435717 -13.293157 2.534850 0.000000 0.000000 0.000000 1.116627 0.998658 0.017857 2.702040 -5.105164 -11.970327 0.000000 0.000000 0.000000 -1.465490 0.828608 -61.648960 -0.000001 -8.652064 0.000002 0.000000 0.000000 0.000000 1.116627 0.998658 0.017857 2.092282 3.142346 15.140742 0.000000 0.000000 0.000000 -5.613152 13.102245 60.546656 -0.000002 23.929817 0.000011 0.000000 0.000000 0.000000 
-1.511744 116.599289 -2.525101 0.000000 0.000000 0.000000 -6.888610 4.010975 1.674431 -7.665560 7.210406 6.288749 19.868754 8.147648 1.166648 -8.410809 1.029133 -7.225139 1.033154 -0.000007 -0.000000 0.000000 0.000000 0.000000 -6.888610 4.010975 1.674431 -3.569554 -8.897808 -7.290862 20.333842 -9.503045 0.438452 -8.602973 -10.339500 5.457074 -1.524131 -0.000015 -0.000000 0.000000 0.000000 0.000000 -6.888610 4.010975 1.674431 5.022067 3.733717 -1.818388 1.130904 1.089238 0.055734 0.000000 0.000000 0.000000 0.000000 0.000000 0.000000 1.135502 1.077775 0.043591 2.234516 -1.417708 0.249046 18.431824 -13.880981 2.812671 0.000000 0.000000 0.000000 1.135502 1.077775 0.043591 2.684957 -5.147451 -11.870796 0.000000 0.000000 0.000000 -0.200420 1.919699 -61.880353 0.000001 -8.732662 -0.000027 0.000000 0.000000 0.000000 1.135502 1.077775 0.043591 2.106926 3.300709 15.177925 0.000000 0.000000 0.000000 -5.749879 13.603908 60.376932 0.000008 25.234776 -0.000029 0.000000 0.000000 0.000000 
